<mxfile host="app.diagrams.net" modified="2023-11-22T16:27:35.208Z" agent="Mozilla/5.0 (X11; Linux x86_64) AppleWebKit/537.36 (KHTML, like Gecko) Chrome/119.0.0.0 Safari/537.36" etag="DBXAxc1351qoV4mX36uo" version="22.1.3" type="github">
  <diagram id="yPxyJZ8AM_hMuL3Unpa9" name="complex gitflow">
    <mxGraphModel dx="3149" dy="2116" grid="1" gridSize="10" guides="1" tooltips="1" connect="1" arrows="1" fold="1" page="1" pageScale="1" pageWidth="1100" pageHeight="850" math="0" shadow="0">
      <root>
        <mxCell id="0" />
        <mxCell id="1" parent="0" />
        <mxCell id="uWUnNED6HEl2aK5fdaIb-8" value="" style="edgeStyle=orthogonalEdgeStyle;rounded=0;html=1;jettySize=auto;orthogonalLoop=1;plain-blue;endArrow=none;endFill=0;strokeWidth=4;strokeColor=#000000;entryX=0;entryY=0.5;entryDx=0;entryDy=0;entryPerimeter=0;" parent="1" source="cZKhLwut3EF_2uJ0cCFD-90" target="cZKhLwut3EF_2uJ0cCFD-53" edge="1">
          <mxGeometry x="292.25" y="211" as="geometry">
            <mxPoint x="660" y="211" as="targetPoint" />
            <Array as="points">
              <mxPoint x="600" y="211" />
            </Array>
          </mxGeometry>
        </mxCell>
        <mxCell id="uWUnNED6HEl2aK5fdaIb-13" value="main/dev" style="text;html=1;strokeColor=none;fillColor=none;align=center;verticalAlign=middle;whiteSpace=wrap;overflow=hidden;fontSize=14;fontStyle=1;fontFamily=Courier New;" parent="1" vertex="1">
          <mxGeometry x="40" y="190" width="93" height="42" as="geometry" />
        </mxCell>
        <mxCell id="uWUnNED6HEl2aK5fdaIb-69" value="" style="verticalLabelPosition=bottom;verticalAlign=top;html=1;strokeWidth=4;shape=mxgraph.flowchart.on-page_reference;strokeColor=#82b366;fillColor=#d5e8d4;" parent="1" vertex="1">
          <mxGeometry x="461" y="81" width="30" height="30" as="geometry" />
        </mxCell>
        <mxCell id="cZKhLwut3EF_2uJ0cCFD-2" value="" style="verticalLabelPosition=bottom;verticalAlign=top;html=1;strokeWidth=4;shape=mxgraph.flowchart.on-page_reference;plain-blue;gradientColor=none;fillColor=#B5E3Fe;strokeColor=#000000;" vertex="1" parent="1">
          <mxGeometry x="370" y="676" width="30" height="30" as="geometry" />
        </mxCell>
        <mxCell id="cZKhLwut3EF_2uJ0cCFD-3" value="" style="edgeStyle=orthogonalEdgeStyle;rounded=0;html=1;jettySize=auto;orthogonalLoop=1;strokeWidth=4;endArrow=none;endFill=0;" edge="1" parent="1" target="cZKhLwut3EF_2uJ0cCFD-2">
          <mxGeometry x="192.25" y="211" as="geometry">
            <mxPoint x="44.019999999999996" y="691" as="sourcePoint" />
          </mxGeometry>
        </mxCell>
        <mxCell id="cZKhLwut3EF_2uJ0cCFD-4" value="SEI" style="text;html=1;strokeColor=none;fillColor=none;align=center;verticalAlign=middle;whiteSpace=wrap;overflow=hidden;fontSize=14;fontStyle=1;fontFamily=Courier New;" vertex="1" parent="1">
          <mxGeometry x="-11.73" y="670" width="50" height="42" as="geometry" />
        </mxCell>
        <mxCell id="cZKhLwut3EF_2uJ0cCFD-11" style="edgeStyle=orthogonalEdgeStyle;curved=1;rounded=0;html=1;exitX=0.5;exitY=0;exitPerimeter=0;endArrow=none;endFill=0;jettySize=auto;orthogonalLoop=1;strokeWidth=4;fontSize=15;exitDx=0;exitDy=0;entryX=0.5;entryY=1;entryDx=0;entryDy=0;entryPerimeter=0;dashed=1;" edge="1" parent="1" source="cZKhLwut3EF_2uJ0cCFD-2" target="cZKhLwut3EF_2uJ0cCFD-90">
          <mxGeometry relative="1" as="geometry">
            <mxPoint x="440" y="221" as="sourcePoint" />
            <mxPoint x="310" y="210" as="targetPoint" />
          </mxGeometry>
        </mxCell>
        <mxCell id="cZKhLwut3EF_2uJ0cCFD-13" value="" style="edgeStyle=orthogonalEdgeStyle;rounded=0;html=1;jettySize=auto;orthogonalLoop=1;strokeWidth=4;endArrow=none;endFill=0;entryX=0;entryY=0.5;entryDx=0;entryDy=0;entryPerimeter=0;" edge="1" parent="1" source="cZKhLwut3EF_2uJ0cCFD-87" target="cZKhLwut3EF_2uJ0cCFD-46">
          <mxGeometry x="192.25" y="211" as="geometry">
            <mxPoint x="150" y="211" as="sourcePoint" />
            <mxPoint x="312.25" y="211" as="targetPoint" />
          </mxGeometry>
        </mxCell>
        <mxCell id="cZKhLwut3EF_2uJ0cCFD-19" value="" style="verticalLabelPosition=bottom;verticalAlign=top;html=1;strokeWidth=4;shape=mxgraph.flowchart.on-page_reference;plain-blue;gradientColor=none;fillColor=#B5E3Fe;strokeColor=#000000;" vertex="1" parent="1">
          <mxGeometry x="791" y="-24" width="30" height="30" as="geometry" />
        </mxCell>
        <mxCell id="cZKhLwut3EF_2uJ0cCFD-20" value="" style="edgeStyle=orthogonalEdgeStyle;rounded=0;html=1;jettySize=auto;orthogonalLoop=1;strokeWidth=4;endArrow=none;endFill=0;" edge="1" parent="1" source="cZKhLwut3EF_2uJ0cCFD-88" target="cZKhLwut3EF_2uJ0cCFD-19">
          <mxGeometry x="192.25" y="211" as="geometry">
            <mxPoint x="457.25" y="72" as="sourcePoint" />
          </mxGeometry>
        </mxCell>
        <mxCell id="cZKhLwut3EF_2uJ0cCFD-21" value="Jaguar" style="text;html=1;strokeColor=none;fillColor=none;align=center;verticalAlign=middle;whiteSpace=wrap;overflow=hidden;fontSize=14;fontStyle=1;fontFamily=Courier New;" vertex="1" parent="1">
          <mxGeometry x="460" y="-36" width="50" height="42" as="geometry" />
        </mxCell>
        <mxCell id="cZKhLwut3EF_2uJ0cCFD-24" value="" style="verticalLabelPosition=bottom;verticalAlign=top;html=1;strokeWidth=4;shape=mxgraph.flowchart.on-page_reference;plain-blue;gradientColor=none;fillColor=#B5E3Fe;strokeColor=#000000;" vertex="1" parent="1">
          <mxGeometry x="519.75" y="-24" width="30" height="30" as="geometry" />
        </mxCell>
        <mxCell id="cZKhLwut3EF_2uJ0cCFD-26" value="" style="verticalLabelPosition=bottom;verticalAlign=top;html=1;strokeWidth=4;shape=mxgraph.flowchart.on-page_reference;plain-blue;gradientColor=none;fillColor=#B5E3Fe;strokeColor=#000000;" vertex="1" parent="1">
          <mxGeometry x="1330" y="380" width="30" height="30" as="geometry" />
        </mxCell>
        <mxCell id="cZKhLwut3EF_2uJ0cCFD-27" value="" style="edgeStyle=orthogonalEdgeStyle;rounded=0;html=1;jettySize=auto;orthogonalLoop=1;strokeWidth=4;endArrow=none;endFill=0;" edge="1" parent="1" source="cZKhLwut3EF_2uJ0cCFD-31" target="cZKhLwut3EF_2uJ0cCFD-26">
          <mxGeometry x="192.25" y="211" as="geometry">
            <mxPoint x="1006.02" y="395" as="sourcePoint" />
          </mxGeometry>
        </mxCell>
        <mxCell id="cZKhLwut3EF_2uJ0cCFD-28" value="Infinity" style="text;html=1;strokeColor=none;fillColor=none;align=center;verticalAlign=middle;whiteSpace=wrap;overflow=hidden;fontSize=14;fontStyle=1;fontFamily=Courier New;" vertex="1" parent="1">
          <mxGeometry x="1054.75" y="360" width="75.25" height="42" as="geometry" />
        </mxCell>
        <mxCell id="cZKhLwut3EF_2uJ0cCFD-31" value="" style="verticalLabelPosition=bottom;verticalAlign=top;html=1;strokeWidth=4;shape=mxgraph.flowchart.on-page_reference;plain-blue;gradientColor=none;fillColor=#B5E3Fe;strokeColor=#000000;" vertex="1" parent="1">
          <mxGeometry x="1168.27" y="380" width="30" height="30" as="geometry" />
        </mxCell>
        <mxCell id="cZKhLwut3EF_2uJ0cCFD-41" style="edgeStyle=orthogonalEdgeStyle;curved=1;rounded=0;html=1;endArrow=none;endFill=0;jettySize=auto;orthogonalLoop=1;strokeWidth=4;fontSize=15;entryX=0;entryY=0.5;entryDx=0;entryDy=0;entryPerimeter=0;exitX=0.5;exitY=1;exitDx=0;exitDy=0;exitPerimeter=0;" edge="1" parent="1" source="cZKhLwut3EF_2uJ0cCFD-82" target="cZKhLwut3EF_2uJ0cCFD-31">
          <mxGeometry relative="1" as="geometry">
            <mxPoint x="980.0199999999998" y="180" as="sourcePoint" />
            <mxPoint x="807.77" y="325" as="targetPoint" />
          </mxGeometry>
        </mxCell>
        <mxCell id="cZKhLwut3EF_2uJ0cCFD-43" style="edgeStyle=orthogonalEdgeStyle;curved=1;rounded=0;html=1;endArrow=none;endFill=0;jettySize=auto;orthogonalLoop=1;strokeWidth=4;fontSize=15;entryX=0;entryY=0.5;entryDx=0;entryDy=0;entryPerimeter=0;exitX=0.5;exitY=0;exitDx=0;exitDy=0;exitPerimeter=0;" edge="1" parent="1" source="cZKhLwut3EF_2uJ0cCFD-87" target="cZKhLwut3EF_2uJ0cCFD-24">
          <mxGeometry relative="1" as="geometry">
            <mxPoint x="210" y="140" as="sourcePoint" />
            <mxPoint x="337" y="236" as="targetPoint" />
          </mxGeometry>
        </mxCell>
        <mxCell id="cZKhLwut3EF_2uJ0cCFD-45" style="edgeStyle=orthogonalEdgeStyle;curved=1;rounded=0;html=1;endArrow=none;endFill=0;jettySize=auto;orthogonalLoop=1;strokeWidth=4;fontSize=15;entryX=0.5;entryY=1;entryDx=0;entryDy=0;entryPerimeter=0;exitX=0.5;exitY=0;exitDx=0;exitDy=0;exitPerimeter=0;" edge="1" parent="1" source="cZKhLwut3EF_2uJ0cCFD-46" target="uWUnNED6HEl2aK5fdaIb-69">
          <mxGeometry relative="1" as="geometry">
            <mxPoint x="660" y="170" as="sourcePoint" />
            <mxPoint x="337" y="236" as="targetPoint" />
          </mxGeometry>
        </mxCell>
        <mxCell id="cZKhLwut3EF_2uJ0cCFD-46" value="" style="verticalLabelPosition=bottom;verticalAlign=top;html=1;strokeWidth=4;shape=mxgraph.flowchart.on-page_reference;plain-blue;gradientColor=none;fillColor=#B5E3Fe;strokeColor=#000000;" vertex="1" parent="1">
          <mxGeometry x="370" y="194" width="30" height="34" as="geometry" />
        </mxCell>
        <mxCell id="cZKhLwut3EF_2uJ0cCFD-49" style="edgeStyle=orthogonalEdgeStyle;curved=1;rounded=0;html=1;endArrow=none;endFill=0;jettySize=auto;orthogonalLoop=1;strokeWidth=4;fontSize=15;entryX=0.5;entryY=1;entryDx=0;entryDy=0;entryPerimeter=0;exitX=0.5;exitY=0;exitDx=0;exitDy=0;exitPerimeter=0;" edge="1" parent="1" source="uWUnNED6HEl2aK5fdaIb-77" target="cZKhLwut3EF_2uJ0cCFD-19">
          <mxGeometry relative="1" as="geometry">
            <mxPoint x="540" y="221" as="sourcePoint" />
            <mxPoint x="590" y="125" as="targetPoint" />
          </mxGeometry>
        </mxCell>
        <mxCell id="cZKhLwut3EF_2uJ0cCFD-50" value="" style="verticalLabelPosition=bottom;verticalAlign=top;html=1;strokeWidth=4;shape=mxgraph.flowchart.on-page_reference;plain-blue;gradientColor=none;fillColor=#B5E3Fe;strokeColor=#000000;" vertex="1" parent="1">
          <mxGeometry x="690" y="194" width="30" height="34" as="geometry" />
        </mxCell>
        <mxCell id="cZKhLwut3EF_2uJ0cCFD-51" style="edgeStyle=orthogonalEdgeStyle;curved=1;rounded=0;html=1;endArrow=none;endFill=0;jettySize=auto;orthogonalLoop=1;strokeWidth=4;fontSize=15;exitX=0.5;exitY=0;exitDx=0;exitDy=0;exitPerimeter=0;entryX=0.5;entryY=1;entryDx=0;entryDy=0;entryPerimeter=0;" edge="1" parent="1" source="cZKhLwut3EF_2uJ0cCFD-50" target="uWUnNED6HEl2aK5fdaIb-77">
          <mxGeometry relative="1" as="geometry">
            <mxPoint x="540" y="221" as="sourcePoint" />
            <mxPoint x="700" y="140" as="targetPoint" />
          </mxGeometry>
        </mxCell>
        <mxCell id="cZKhLwut3EF_2uJ0cCFD-52" style="edgeStyle=orthogonalEdgeStyle;curved=1;rounded=0;html=1;endArrow=none;endFill=0;jettySize=auto;orthogonalLoop=1;strokeWidth=4;fontSize=15;entryX=0.5;entryY=1;entryDx=0;entryDy=0;entryPerimeter=0;exitX=0.5;exitY=0;exitDx=0;exitDy=0;exitPerimeter=0;" edge="1" parent="1" source="cZKhLwut3EF_2uJ0cCFD-53" target="uWUnNED6HEl2aK5fdaIb-70">
          <mxGeometry relative="1" as="geometry">
            <mxPoint x="590" y="190" as="sourcePoint" />
            <mxPoint x="725" y="140" as="targetPoint" />
          </mxGeometry>
        </mxCell>
        <mxCell id="cZKhLwut3EF_2uJ0cCFD-53" value="" style="verticalLabelPosition=bottom;verticalAlign=top;html=1;strokeWidth=4;shape=mxgraph.flowchart.on-page_reference;plain-blue;gradientColor=none;fillColor=#B5E3Fe;strokeColor=#000000;" vertex="1" parent="1">
          <mxGeometry x="600" y="194" width="30" height="34" as="geometry" />
        </mxCell>
        <mxCell id="cZKhLwut3EF_2uJ0cCFD-56" value="" style="edgeStyle=orthogonalEdgeStyle;rounded=0;html=1;jettySize=auto;orthogonalLoop=1;plain-blue;endArrow=none;endFill=0;strokeWidth=4;strokeColor=#000000;entryX=0;entryY=0.5;entryDx=0;entryDy=0;entryPerimeter=0;exitX=1;exitY=0.5;exitDx=0;exitDy=0;exitPerimeter=0;" edge="1" parent="1" source="cZKhLwut3EF_2uJ0cCFD-53" target="cZKhLwut3EF_2uJ0cCFD-50">
          <mxGeometry as="geometry">
            <mxPoint x="620" y="221" as="targetPoint" />
            <mxPoint x="540" y="221" as="sourcePoint" />
          </mxGeometry>
        </mxCell>
        <mxCell id="cZKhLwut3EF_2uJ0cCFD-59" style="edgeStyle=orthogonalEdgeStyle;curved=1;rounded=0;html=1;endArrow=none;endFill=0;jettySize=auto;orthogonalLoop=1;strokeWidth=4;fontSize=15;entryX=0.5;entryY=1;entryDx=0;entryDy=0;entryPerimeter=0;exitX=0.5;exitY=0;exitDx=0;exitDy=0;exitPerimeter=0;" edge="1" parent="1" source="uWUnNED6HEl2aK5fdaIb-69" target="cZKhLwut3EF_2uJ0cCFD-24">
          <mxGeometry relative="1" as="geometry">
            <mxPoint x="525" y="204" as="sourcePoint" />
            <mxPoint x="605" y="140" as="targetPoint" />
          </mxGeometry>
        </mxCell>
        <mxCell id="cZKhLwut3EF_2uJ0cCFD-60" value="" style="edgeStyle=orthogonalEdgeStyle;rounded=0;html=1;jettySize=auto;orthogonalLoop=1;plain-blue;endArrow=none;endFill=0;strokeWidth=4;strokeColor=#000000;entryX=0;entryY=0.5;entryDx=0;entryDy=0;entryPerimeter=0;" edge="1" parent="1" source="cZKhLwut3EF_2uJ0cCFD-65" target="cZKhLwut3EF_2uJ0cCFD-70">
          <mxGeometry x="292.25" y="211" as="geometry">
            <mxPoint x="1240" y="211" as="targetPoint" />
            <Array as="points">
              <mxPoint x="1180" y="211" />
            </Array>
          </mxGeometry>
        </mxCell>
        <mxCell id="cZKhLwut3EF_2uJ0cCFD-61" value="" style="verticalLabelPosition=bottom;verticalAlign=top;html=1;strokeWidth=4;shape=mxgraph.flowchart.on-page_reference;strokeColor=#82b366;fillColor=#d5e8d4;" vertex="1" parent="1">
          <mxGeometry x="1130" y="275" width="30" height="30" as="geometry" />
        </mxCell>
        <mxCell id="cZKhLwut3EF_2uJ0cCFD-63" value="" style="verticalLabelPosition=bottom;verticalAlign=top;html=1;strokeWidth=4;shape=mxgraph.flowchart.on-page_reference;strokeColor=#82b366;fillColor=#d5e8d4;" vertex="1" parent="1">
          <mxGeometry x="1300" y="275" width="30" height="30" as="geometry" />
        </mxCell>
        <mxCell id="cZKhLwut3EF_2uJ0cCFD-64" style="edgeStyle=orthogonalEdgeStyle;curved=1;rounded=0;html=1;endArrow=none;endFill=0;jettySize=auto;orthogonalLoop=1;strokeWidth=4;fontSize=15;entryX=0.5;entryY=0;entryDx=0;entryDy=0;exitX=0.5;exitY=1;exitDx=0;exitDy=0;exitPerimeter=0;entryPerimeter=0;" edge="1" parent="1" source="cZKhLwut3EF_2uJ0cCFD-65" target="cZKhLwut3EF_2uJ0cCFD-61">
          <mxGeometry relative="1" as="geometry">
            <mxPoint x="1209.77" y="26" as="sourcePoint" />
            <mxPoint x="886.77" y="92" as="targetPoint" />
          </mxGeometry>
        </mxCell>
        <mxCell id="cZKhLwut3EF_2uJ0cCFD-65" value="" style="verticalLabelPosition=bottom;verticalAlign=top;html=1;strokeWidth=4;shape=mxgraph.flowchart.on-page_reference;plain-blue;gradientColor=none;fillColor=#B5E3Fe;strokeColor=#000000;" vertex="1" parent="1">
          <mxGeometry x="1080" y="194" width="30" height="34" as="geometry" />
        </mxCell>
        <mxCell id="cZKhLwut3EF_2uJ0cCFD-66" value="QAC" style="text;html=1;strokeColor=none;fillColor=none;align=left;verticalAlign=middle;whiteSpace=wrap;overflow=hidden;fontSize=14;fontStyle=1;fontFamily=Courier New;" vertex="1" parent="1">
          <mxGeometry x="1039" y="275" width="91" height="20" as="geometry" />
        </mxCell>
        <mxCell id="cZKhLwut3EF_2uJ0cCFD-67" value="" style="verticalLabelPosition=bottom;verticalAlign=top;html=1;strokeWidth=4;shape=mxgraph.flowchart.on-page_reference;plain-blue;gradientColor=none;fillColor=#B5E3Fe;strokeColor=#000000;" vertex="1" parent="1">
          <mxGeometry x="1270" y="194" width="30" height="34" as="geometry" />
        </mxCell>
        <mxCell id="cZKhLwut3EF_2uJ0cCFD-68" style="edgeStyle=orthogonalEdgeStyle;curved=1;rounded=0;html=1;endArrow=none;endFill=0;jettySize=auto;orthogonalLoop=1;strokeWidth=4;fontSize=15;exitX=0.5;exitY=1;exitDx=0;exitDy=0;exitPerimeter=0;entryX=0.5;entryY=0;entryDx=0;entryDy=0;entryPerimeter=0;" edge="1" parent="1" source="cZKhLwut3EF_2uJ0cCFD-67" target="cZKhLwut3EF_2uJ0cCFD-63">
          <mxGeometry relative="1" as="geometry">
            <mxPoint x="1089.77" y="77" as="sourcePoint" />
            <mxPoint x="1249.77" y="-4" as="targetPoint" />
          </mxGeometry>
        </mxCell>
        <mxCell id="cZKhLwut3EF_2uJ0cCFD-69" style="edgeStyle=orthogonalEdgeStyle;curved=1;rounded=0;html=1;endArrow=none;endFill=0;jettySize=auto;orthogonalLoop=1;strokeWidth=4;fontSize=15;entryX=0.5;entryY=0;entryDx=0;entryDy=0;entryPerimeter=0;exitX=0.5;exitY=1;exitDx=0;exitDy=0;exitPerimeter=0;" edge="1" parent="1" source="cZKhLwut3EF_2uJ0cCFD-70" target="cZKhLwut3EF_2uJ0cCFD-62">
          <mxGeometry relative="1" as="geometry">
            <mxPoint x="1139.77" y="46" as="sourcePoint" />
            <mxPoint x="1274.77" y="-4" as="targetPoint" />
          </mxGeometry>
        </mxCell>
        <mxCell id="cZKhLwut3EF_2uJ0cCFD-70" value="" style="verticalLabelPosition=bottom;verticalAlign=top;html=1;strokeWidth=4;shape=mxgraph.flowchart.on-page_reference;plain-blue;gradientColor=none;fillColor=#B5E3Fe;strokeColor=#000000;" vertex="1" parent="1">
          <mxGeometry x="1180" y="194" width="30" height="34" as="geometry" />
        </mxCell>
        <mxCell id="cZKhLwut3EF_2uJ0cCFD-71" value="" style="edgeStyle=orthogonalEdgeStyle;rounded=0;html=1;jettySize=auto;orthogonalLoop=1;plain-blue;endArrow=none;endFill=0;strokeWidth=4;strokeColor=#000000;entryX=0;entryY=0.5;entryDx=0;entryDy=0;entryPerimeter=0;exitX=1;exitY=0.5;exitDx=0;exitDy=0;exitPerimeter=0;" edge="1" parent="1" source="cZKhLwut3EF_2uJ0cCFD-70" target="cZKhLwut3EF_2uJ0cCFD-67">
          <mxGeometry as="geometry">
            <mxPoint x="1200" y="221" as="targetPoint" />
            <mxPoint x="1120" y="221" as="sourcePoint" />
          </mxGeometry>
        </mxCell>
        <mxCell id="cZKhLwut3EF_2uJ0cCFD-72" style="edgeStyle=orthogonalEdgeStyle;rounded=0;orthogonalLoop=1;jettySize=auto;html=1;entryX=0;entryY=0.5;entryDx=0;entryDy=0;entryPerimeter=0;endArrow=none;endFill=0;strokeWidth=4;" edge="1" parent="1" source="cZKhLwut3EF_2uJ0cCFD-78" target="cZKhLwut3EF_2uJ0cCFD-65">
          <mxGeometry relative="1" as="geometry">
            <mxPoint x="995.0199999999998" y="197" as="sourcePoint" />
          </mxGeometry>
        </mxCell>
        <mxCell id="cZKhLwut3EF_2uJ0cCFD-73" style="edgeStyle=orthogonalEdgeStyle;curved=1;rounded=0;html=1;endArrow=none;endFill=0;jettySize=auto;orthogonalLoop=1;strokeWidth=4;fontSize=15;entryX=0.5;entryY=0;entryDx=0;entryDy=0;entryPerimeter=0;exitX=0.5;exitY=1;exitDx=0;exitDy=0;exitPerimeter=0;" edge="1" parent="1" source="cZKhLwut3EF_2uJ0cCFD-61" target="cZKhLwut3EF_2uJ0cCFD-31">
          <mxGeometry relative="1" as="geometry">
            <mxPoint x="1030.5" y="672" as="sourcePoint" />
            <mxPoint x="1175.5" y="448" as="targetPoint" />
          </mxGeometry>
        </mxCell>
        <mxCell id="cZKhLwut3EF_2uJ0cCFD-74" style="edgeStyle=orthogonalEdgeStyle;curved=1;rounded=0;html=1;endArrow=none;endFill=0;jettySize=auto;orthogonalLoop=1;strokeWidth=4;fontSize=15;entryX=0.5;entryY=0;entryDx=0;entryDy=0;entryPerimeter=0;exitX=0.5;exitY=1;exitDx=0;exitDy=0;exitPerimeter=0;" edge="1" parent="1" source="cZKhLwut3EF_2uJ0cCFD-63" target="cZKhLwut3EF_2uJ0cCFD-26">
          <mxGeometry relative="1" as="geometry">
            <mxPoint x="1040.5" y="682" as="sourcePoint" />
            <mxPoint x="1185.5" y="458" as="targetPoint" />
          </mxGeometry>
        </mxCell>
        <mxCell id="cZKhLwut3EF_2uJ0cCFD-75" value="" style="verticalLabelPosition=bottom;verticalAlign=top;html=1;strokeWidth=4;shape=mxgraph.flowchart.on-page_reference;strokeColor=#d79b00;fillColor=#ffe6cc;" vertex="1" parent="1">
          <mxGeometry x="980" y="-24" width="30" height="30" as="geometry" />
        </mxCell>
        <mxCell id="cZKhLwut3EF_2uJ0cCFD-77" style="edgeStyle=orthogonalEdgeStyle;rounded=0;orthogonalLoop=1;jettySize=auto;html=1;entryX=0;entryY=0.5;entryDx=0;entryDy=0;entryPerimeter=0;endArrow=none;endFill=0;strokeWidth=4;" edge="1" parent="1" source="cZKhLwut3EF_2uJ0cCFD-19" target="cZKhLwut3EF_2uJ0cCFD-75">
          <mxGeometry relative="1" as="geometry" />
        </mxCell>
        <mxCell id="cZKhLwut3EF_2uJ0cCFD-79" value="" style="edgeStyle=orthogonalEdgeStyle;rounded=0;orthogonalLoop=1;jettySize=auto;html=1;entryX=0;entryY=0.5;entryDx=0;entryDy=0;entryPerimeter=0;endArrow=none;endFill=0;strokeWidth=4;" edge="1" parent="1" source="cZKhLwut3EF_2uJ0cCFD-82" target="cZKhLwut3EF_2uJ0cCFD-78">
          <mxGeometry relative="1" as="geometry">
            <mxPoint x="720" y="211" as="sourcePoint" />
            <mxPoint x="900" y="211" as="targetPoint" />
          </mxGeometry>
        </mxCell>
        <mxCell id="cZKhLwut3EF_2uJ0cCFD-78" value="HOT FIX" style="verticalLabelPosition=bottom;verticalAlign=top;html=1;strokeWidth=4;shape=mxgraph.flowchart.on-page_reference;plain-blue;gradientColor=none;fillColor=#B5E3Fe;strokeColor=#000000;" vertex="1" parent="1">
          <mxGeometry x="910" y="194" width="30" height="34" as="geometry" />
        </mxCell>
        <mxCell id="cZKhLwut3EF_2uJ0cCFD-81" style="edgeStyle=orthogonalEdgeStyle;curved=1;rounded=0;html=1;endArrow=none;endFill=0;jettySize=auto;orthogonalLoop=1;strokeWidth=2;fontSize=15;entryX=0.5;entryY=1;entryDx=0;entryDy=0;entryPerimeter=0;exitX=0.5;exitY=0;exitDx=0;exitDy=0;exitPerimeter=0;dashed=1;dashPattern=1 2;" edge="1" parent="1" target="cZKhLwut3EF_2uJ0cCFD-80" source="cZKhLwut3EF_2uJ0cCFD-78">
          <mxGeometry relative="1" as="geometry">
            <mxPoint x="1020.0199999999998" y="180" as="sourcePoint" />
            <mxPoint x="1011.02" y="121.46000000000001" as="targetPoint" />
          </mxGeometry>
        </mxCell>
        <mxCell id="cZKhLwut3EF_2uJ0cCFD-83" value="" style="edgeStyle=orthogonalEdgeStyle;rounded=0;orthogonalLoop=1;jettySize=auto;html=1;entryX=0;entryY=0.5;entryDx=0;entryDy=0;entryPerimeter=0;endArrow=none;endFill=0;strokeWidth=4;" edge="1" parent="1" source="cZKhLwut3EF_2uJ0cCFD-50" target="cZKhLwut3EF_2uJ0cCFD-82">
          <mxGeometry relative="1" as="geometry">
            <mxPoint x="720" y="211" as="sourcePoint" />
            <mxPoint x="870" y="211" as="targetPoint" />
          </mxGeometry>
        </mxCell>
        <mxCell id="cZKhLwut3EF_2uJ0cCFD-84" style="edgeStyle=orthogonalEdgeStyle;curved=1;rounded=0;html=1;endArrow=none;endFill=0;jettySize=auto;orthogonalLoop=1;strokeWidth=2;fontSize=15;entryX=0.5;entryY=1;entryDx=0;entryDy=0;entryPerimeter=0;exitX=0.5;exitY=0;exitDx=0;exitDy=0;exitPerimeter=0;dashed=1;dashPattern=1 2;" edge="1" parent="1" source="cZKhLwut3EF_2uJ0cCFD-80" target="cZKhLwut3EF_2uJ0cCFD-75">
          <mxGeometry relative="1" as="geometry">
            <mxPoint x="935" y="204" as="sourcePoint" />
            <mxPoint x="985" y="110" as="targetPoint" />
          </mxGeometry>
        </mxCell>
        <mxCell id="cZKhLwut3EF_2uJ0cCFD-89" style="edgeStyle=orthogonalEdgeStyle;curved=1;rounded=0;html=1;endArrow=none;endFill=0;jettySize=auto;orthogonalLoop=1;strokeWidth=4;fontSize=15;entryX=0.5;entryY=1;entryDx=0;entryDy=0;entryPerimeter=0;exitX=0.5;exitY=0;exitDx=0;exitDy=0;exitPerimeter=0;" edge="1" parent="1" source="cZKhLwut3EF_2uJ0cCFD-90" target="cZKhLwut3EF_2uJ0cCFD-94">
          <mxGeometry relative="1" as="geometry">
            <mxPoint x="670" y="530" as="sourcePoint" />
            <mxPoint x="605" y="490" as="targetPoint" />
          </mxGeometry>
        </mxCell>
        <mxCell id="cZKhLwut3EF_2uJ0cCFD-92" style="edgeStyle=orthogonalEdgeStyle;curved=1;rounded=0;html=1;endArrow=none;endFill=0;jettySize=auto;orthogonalLoop=1;strokeWidth=4;fontSize=15;entryX=0.5;entryY=1;entryDx=0;entryDy=0;entryPerimeter=0;exitX=0.5;exitY=0;exitDx=0;exitDy=0;exitPerimeter=0;" edge="1" parent="1" source="cZKhLwut3EF_2uJ0cCFD-94" target="cZKhLwut3EF_2uJ0cCFD-88">
          <mxGeometry relative="1" as="geometry">
            <mxPoint x="535" y="564" as="sourcePoint" />
            <mxPoint x="615" y="500" as="targetPoint" />
          </mxGeometry>
        </mxCell>
        <mxCell id="cZKhLwut3EF_2uJ0cCFD-93" value="" style="edgeStyle=orthogonalEdgeStyle;rounded=0;html=1;jettySize=auto;orthogonalLoop=1;strokeWidth=4;endArrow=none;endFill=0;" edge="1" parent="1" source="cZKhLwut3EF_2uJ0cCFD-24" target="cZKhLwut3EF_2uJ0cCFD-88">
          <mxGeometry x="192.25" y="211" as="geometry">
            <mxPoint x="550" y="-9" as="sourcePoint" />
            <mxPoint x="765" y="-15" as="targetPoint" />
          </mxGeometry>
        </mxCell>
        <mxCell id="cZKhLwut3EF_2uJ0cCFD-88" value="" style="verticalLabelPosition=bottom;verticalAlign=top;html=1;strokeWidth=4;shape=mxgraph.flowchart.on-page_reference;plain-blue;gradientColor=none;fillColor=#B5E3Fe;strokeColor=#000000;" vertex="1" parent="1">
          <mxGeometry x="620" y="-24" width="30" height="30" as="geometry" />
        </mxCell>
        <mxCell id="cZKhLwut3EF_2uJ0cCFD-95" value="" style="edgeStyle=orthogonalEdgeStyle;rounded=0;html=1;jettySize=auto;orthogonalLoop=1;plain-blue;endArrow=none;endFill=0;strokeWidth=4;strokeColor=#000000;entryX=0;entryY=0.5;entryDx=0;entryDy=0;entryPerimeter=0;" edge="1" parent="1" source="cZKhLwut3EF_2uJ0cCFD-46" target="cZKhLwut3EF_2uJ0cCFD-90">
          <mxGeometry x="292.25" y="211" as="geometry">
            <mxPoint x="600" y="211" as="targetPoint" />
            <mxPoint x="432" y="211" as="sourcePoint" />
            <Array as="points" />
          </mxGeometry>
        </mxCell>
        <mxCell id="cZKhLwut3EF_2uJ0cCFD-90" value="" style="verticalLabelPosition=bottom;verticalAlign=top;html=1;strokeWidth=4;shape=mxgraph.flowchart.on-page_reference;plain-blue;gradientColor=none;fillColor=#B5E3Fe;strokeColor=#000000;" vertex="1" parent="1">
          <mxGeometry x="493" y="194" width="30" height="34" as="geometry" />
        </mxCell>
        <mxCell id="cZKhLwut3EF_2uJ0cCFD-98" value="" style="endArrow=none;dashed=1;html=1;dashPattern=1 3;strokeWidth=2;rounded=0;labelBackgroundColor=default;strokeColor=default;align=center;verticalAlign=middle;fontFamily=Helvetica;fontSize=11;fontColor=default;shape=connector;" edge="1" parent="1" source="cZKhLwut3EF_2uJ0cCFD-80">
          <mxGeometry width="50" height="50" relative="1" as="geometry">
            <mxPoint x="381" y="95" as="sourcePoint" />
            <mxPoint x="931" y="95" as="targetPoint" />
          </mxGeometry>
        </mxCell>
        <mxCell id="cZKhLwut3EF_2uJ0cCFD-99" value="" style="endArrow=none;html=1;strokeWidth=1;rounded=0;labelBackgroundColor=default;strokeColor=default;align=center;verticalAlign=middle;fontFamily=Helvetica;fontSize=11;fontColor=default;shape=connector;" edge="1" parent="1" source="uWUnNED6HEl2aK5fdaIb-77" target="cZKhLwut3EF_2uJ0cCFD-80">
          <mxGeometry width="50" height="50" relative="1" as="geometry">
            <mxPoint x="381" y="95" as="sourcePoint" />
            <mxPoint x="931" y="95" as="targetPoint" />
          </mxGeometry>
        </mxCell>
        <mxCell id="cZKhLwut3EF_2uJ0cCFD-80" value="" style="verticalLabelPosition=bottom;verticalAlign=top;html=1;strokeWidth=4;shape=mxgraph.flowchart.on-page_reference;strokeColor=#82b366;fillColor=#d5e8d4;" vertex="1" parent="1">
          <mxGeometry x="931" y="81" width="30" height="30" as="geometry" />
        </mxCell>
        <mxCell id="cZKhLwut3EF_2uJ0cCFD-100" value="" style="endArrow=none;html=1;strokeWidth=1;rounded=0;labelBackgroundColor=default;strokeColor=default;align=center;verticalAlign=middle;fontFamily=Helvetica;fontSize=11;fontColor=default;shape=connector;" edge="1" parent="1" source="uWUnNED6HEl2aK5fdaIb-70" target="uWUnNED6HEl2aK5fdaIb-77">
          <mxGeometry width="50" height="50" relative="1" as="geometry">
            <mxPoint x="381" y="95" as="sourcePoint" />
            <mxPoint x="891" y="96" as="targetPoint" />
          </mxGeometry>
        </mxCell>
        <mxCell id="uWUnNED6HEl2aK5fdaIb-77" value="" style="verticalLabelPosition=bottom;verticalAlign=top;html=1;strokeWidth=4;shape=mxgraph.flowchart.on-page_reference;strokeColor=#82b366;fillColor=#d5e8d4;" parent="1" vertex="1">
          <mxGeometry x="761" y="81" width="30" height="30" as="geometry" />
        </mxCell>
        <mxCell id="cZKhLwut3EF_2uJ0cCFD-101" value="" style="endArrow=none;html=1;strokeWidth=1;rounded=0;labelBackgroundColor=default;strokeColor=default;align=center;verticalAlign=middle;fontFamily=Helvetica;fontSize=11;fontColor=default;shape=connector;" edge="1" parent="1" source="cZKhLwut3EF_2uJ0cCFD-94" target="uWUnNED6HEl2aK5fdaIb-70">
          <mxGeometry width="50" height="50" relative="1" as="geometry">
            <mxPoint x="381" y="95" as="sourcePoint" />
            <mxPoint x="741" y="96" as="targetPoint" />
          </mxGeometry>
        </mxCell>
        <mxCell id="uWUnNED6HEl2aK5fdaIb-70" value="" style="verticalLabelPosition=bottom;verticalAlign=top;html=1;strokeWidth=4;shape=mxgraph.flowchart.on-page_reference;strokeColor=#b85450;fillColor=#f8cecc;align=center;" parent="1" vertex="1">
          <mxGeometry x="671" y="80" width="30" height="30" as="geometry" />
        </mxCell>
        <mxCell id="cZKhLwut3EF_2uJ0cCFD-102" value="" style="endArrow=none;html=1;strokeWidth=1;rounded=0;labelBackgroundColor=default;strokeColor=default;align=center;verticalAlign=middle;fontFamily=Helvetica;fontSize=11;fontColor=default;shape=connector;exitX=1;exitY=0.5;exitDx=0;exitDy=0;exitPerimeter=0;" edge="1" parent="1" source="uWUnNED6HEl2aK5fdaIb-69" target="cZKhLwut3EF_2uJ0cCFD-94">
          <mxGeometry width="50" height="50" relative="1" as="geometry">
            <mxPoint x="381" y="95" as="sourcePoint" />
            <mxPoint x="651" y="96" as="targetPoint" />
          </mxGeometry>
        </mxCell>
        <mxCell id="cZKhLwut3EF_2uJ0cCFD-94" value="" style="verticalLabelPosition=bottom;verticalAlign=top;html=1;strokeWidth=4;shape=mxgraph.flowchart.on-page_reference;strokeColor=#82b366;fillColor=#d5e8d4;" vertex="1" parent="1">
          <mxGeometry x="571" y="81" width="30" height="30" as="geometry" />
        </mxCell>
        <mxCell id="cZKhLwut3EF_2uJ0cCFD-105" style="edgeStyle=orthogonalEdgeStyle;shape=connector;rounded=0;orthogonalLoop=1;jettySize=auto;html=1;labelBackgroundColor=default;strokeColor=default;strokeWidth=4;align=center;verticalAlign=middle;fontFamily=Helvetica;fontSize=11;fontColor=default;endArrow=none;endFill=0;exitX=1;exitY=0.5;exitDx=0;exitDy=0;exitPerimeter=0;" edge="1" parent="1" source="cZKhLwut3EF_2uJ0cCFD-104">
          <mxGeometry relative="1" as="geometry">
            <mxPoint x="1198.27" y="691" as="targetPoint" />
            <mxPoint x="918.27" y="691" as="sourcePoint" />
          </mxGeometry>
        </mxCell>
        <mxCell id="cZKhLwut3EF_2uJ0cCFD-104" value="" style="verticalLabelPosition=bottom;verticalAlign=top;html=1;strokeWidth=4;shape=mxgraph.flowchart.on-page_reference;plain-blue;gradientColor=none;fillColor=#B5E3Fe;strokeColor=#000000;" vertex="1" parent="1">
          <mxGeometry x="990" y="676" width="30" height="30" as="geometry" />
        </mxCell>
        <mxCell id="cZKhLwut3EF_2uJ0cCFD-107" style="edgeStyle=orthogonalEdgeStyle;shape=connector;rounded=0;orthogonalLoop=1;jettySize=auto;html=1;entryX=0;entryY=0.5;entryDx=0;entryDy=0;entryPerimeter=0;labelBackgroundColor=default;strokeColor=default;strokeWidth=4;align=center;verticalAlign=middle;fontFamily=Helvetica;fontSize=11;fontColor=default;endArrow=none;endFill=0;" edge="1" parent="1" source="cZKhLwut3EF_2uJ0cCFD-2" target="cZKhLwut3EF_2uJ0cCFD-104">
          <mxGeometry relative="1" as="geometry" />
        </mxCell>
        <mxCell id="cZKhLwut3EF_2uJ0cCFD-108" style="edgeStyle=orthogonalEdgeStyle;curved=1;rounded=0;html=1;endArrow=none;endFill=0;jettySize=auto;orthogonalLoop=1;strokeWidth=4;fontSize=15;entryX=0.5;entryY=0;entryDx=0;entryDy=0;entryPerimeter=0;exitX=0.5;exitY=1;exitDx=0;exitDy=0;exitPerimeter=0;dashed=1;" edge="1" parent="1" source="cZKhLwut3EF_2uJ0cCFD-65" target="cZKhLwut3EF_2uJ0cCFD-104">
          <mxGeometry relative="1" as="geometry">
            <mxPoint x="1155" y="310" as="sourcePoint" />
            <mxPoint x="1193" y="390" as="targetPoint" />
          </mxGeometry>
        </mxCell>
        <mxCell id="cZKhLwut3EF_2uJ0cCFD-109" value="" style="endArrow=none;html=1;rounded=0;labelBackgroundColor=default;strokeColor=default;strokeWidth=1;align=center;verticalAlign=middle;fontFamily=Helvetica;fontSize=11;fontColor=default;shape=connector;exitX=1;exitY=0.5;exitDx=0;exitDy=0;exitPerimeter=0;entryX=0;entryY=0.5;entryDx=0;entryDy=0;entryPerimeter=0;" edge="1" parent="1" source="cZKhLwut3EF_2uJ0cCFD-62" target="cZKhLwut3EF_2uJ0cCFD-63">
          <mxGeometry width="50" height="50" relative="1" as="geometry">
            <mxPoint x="910" y="470" as="sourcePoint" />
            <mxPoint x="960" y="420" as="targetPoint" />
          </mxGeometry>
        </mxCell>
        <mxCell id="cZKhLwut3EF_2uJ0cCFD-110" value="" style="endArrow=none;html=1;rounded=0;labelBackgroundColor=default;strokeColor=default;strokeWidth=1;align=center;verticalAlign=middle;fontFamily=Helvetica;fontSize=11;fontColor=default;shape=connector;exitX=1;exitY=0.5;exitDx=0;exitDy=0;exitPerimeter=0;entryX=0;entryY=0.5;entryDx=0;entryDy=0;entryPerimeter=0;" edge="1" parent="1" source="cZKhLwut3EF_2uJ0cCFD-61" target="cZKhLwut3EF_2uJ0cCFD-62">
          <mxGeometry width="50" height="50" relative="1" as="geometry">
            <mxPoint x="1160" y="290" as="sourcePoint" />
            <mxPoint x="1300" y="290" as="targetPoint" />
          </mxGeometry>
        </mxCell>
        <mxCell id="cZKhLwut3EF_2uJ0cCFD-62" value="DQ" style="verticalLabelPosition=bottom;verticalAlign=top;html=1;strokeWidth=4;shape=mxgraph.flowchart.on-page_reference;strokeColor=#b85450;fillColor=#f8cecc;" vertex="1" parent="1">
          <mxGeometry x="1210" y="275" width="30" height="30" as="geometry" />
        </mxCell>
        <mxCell id="cZKhLwut3EF_2uJ0cCFD-111" value="QAC" style="text;html=1;strokeColor=none;fillColor=none;align=left;verticalAlign=middle;whiteSpace=wrap;overflow=hidden;fontSize=14;fontStyle=1;fontFamily=Courier New;" vertex="1" parent="1">
          <mxGeometry x="410" y="85" width="91" height="20" as="geometry" />
        </mxCell>
        <mxCell id="cZKhLwut3EF_2uJ0cCFD-113" value="" style="endArrow=none;dashed=1;html=1;rounded=0;labelBackgroundColor=default;strokeColor=#d6b656;strokeWidth=1;align=center;verticalAlign=middle;fontFamily=Helvetica;fontSize=11;fontColor=default;shape=connector;fillColor=#fff2cc;" edge="1" parent="1" source="cZKhLwut3EF_2uJ0cCFD-143">
          <mxGeometry width="50" height="50" relative="1" as="geometry">
            <mxPoint x="880" y="560" as="sourcePoint" />
            <mxPoint x="875" y="-300" as="targetPoint" />
          </mxGeometry>
        </mxCell>
        <mxCell id="cZKhLwut3EF_2uJ0cCFD-118" value="" style="endArrow=none;dashed=1;html=1;rounded=0;labelBackgroundColor=default;strokeColor=#d6b656;strokeWidth=1;align=center;verticalAlign=middle;fontFamily=Helvetica;fontSize=11;fontColor=default;shape=connector;fillColor=#fff2cc;" edge="1" parent="1" target="cZKhLwut3EF_2uJ0cCFD-82">
          <mxGeometry width="50" height="50" relative="1" as="geometry">
            <mxPoint x="875" y="841.7391304347826" as="sourcePoint" />
            <mxPoint x="880" y="-160" as="targetPoint" />
          </mxGeometry>
        </mxCell>
        <mxCell id="cZKhLwut3EF_2uJ0cCFD-82" value="" style="verticalLabelPosition=bottom;verticalAlign=top;html=1;strokeWidth=4;shape=mxgraph.flowchart.on-page_reference;plain-blue;gradientColor=none;fillColor=#B5E3Fe;strokeColor=#000000;" vertex="1" parent="1">
          <mxGeometry x="860" y="194" width="30" height="34" as="geometry" />
        </mxCell>
        <mxCell id="cZKhLwut3EF_2uJ0cCFD-120" value="" style="verticalLabelPosition=bottom;verticalAlign=top;html=1;strokeWidth=4;shape=mxgraph.flowchart.on-page_reference;plain-blue;gradientColor=none;fillColor=#B5E3Fe;strokeColor=#000000;" vertex="1" parent="1">
          <mxGeometry x="830" y="-108" width="30" height="30" as="geometry" />
        </mxCell>
        <mxCell id="cZKhLwut3EF_2uJ0cCFD-122" value="Jaguar FACTORY" style="text;html=1;strokeColor=none;fillColor=none;align=center;verticalAlign=middle;whiteSpace=wrap;overflow=hidden;fontSize=14;fontStyle=1;fontFamily=Courier New;" vertex="1" parent="1">
          <mxGeometry x="461" y="-140" width="50" height="42" as="geometry" />
        </mxCell>
        <mxCell id="cZKhLwut3EF_2uJ0cCFD-123" value="" style="verticalLabelPosition=bottom;verticalAlign=top;html=1;strokeWidth=4;shape=mxgraph.flowchart.on-page_reference;plain-blue;gradientColor=none;fillColor=#B5E3Fe;strokeColor=#000000;" vertex="1" parent="1">
          <mxGeometry x="549.75" y="-108" width="30" height="30" as="geometry" />
        </mxCell>
        <mxCell id="cZKhLwut3EF_2uJ0cCFD-124" value="" style="verticalLabelPosition=bottom;verticalAlign=top;html=1;strokeWidth=4;shape=mxgraph.flowchart.on-page_reference;strokeColor=#d79b00;fillColor=#ffe6cc;" vertex="1" parent="1">
          <mxGeometry x="981" y="-108" width="30" height="30" as="geometry" />
        </mxCell>
        <mxCell id="cZKhLwut3EF_2uJ0cCFD-125" style="edgeStyle=orthogonalEdgeStyle;rounded=0;orthogonalLoop=1;jettySize=auto;html=1;entryX=0;entryY=0.5;entryDx=0;entryDy=0;entryPerimeter=0;endArrow=none;endFill=0;strokeWidth=4;fillColor=#dae8fc;strokeColor=#6c8ebf;" edge="1" parent="1" source="cZKhLwut3EF_2uJ0cCFD-120" target="cZKhLwut3EF_2uJ0cCFD-124">
          <mxGeometry relative="1" as="geometry" />
        </mxCell>
        <mxCell id="cZKhLwut3EF_2uJ0cCFD-126" value="" style="edgeStyle=orthogonalEdgeStyle;rounded=0;html=1;jettySize=auto;orthogonalLoop=1;strokeWidth=4;endArrow=none;endFill=0;entryX=0;entryY=0.5;entryDx=0;entryDy=0;entryPerimeter=0;fillColor=#dae8fc;strokeColor=#6c8ebf;" edge="1" parent="1" source="cZKhLwut3EF_2uJ0cCFD-158" target="cZKhLwut3EF_2uJ0cCFD-120">
          <mxGeometry x="192.25" y="211" as="geometry">
            <mxPoint x="551" y="-93" as="sourcePoint" />
            <mxPoint x="621" y="-93" as="targetPoint" />
          </mxGeometry>
        </mxCell>
        <mxCell id="cZKhLwut3EF_2uJ0cCFD-129" style="edgeStyle=orthogonalEdgeStyle;curved=1;rounded=0;html=1;endArrow=none;endFill=0;jettySize=auto;orthogonalLoop=1;strokeWidth=4;fontSize=15;entryX=0;entryY=0.5;entryDx=0;entryDy=0;entryPerimeter=0;exitX=0.5;exitY=0;exitDx=0;exitDy=0;exitPerimeter=0;fillColor=#dae8fc;strokeColor=#6c8ebf;" edge="1" parent="1" source="cZKhLwut3EF_2uJ0cCFD-87" target="cZKhLwut3EF_2uJ0cCFD-123">
          <mxGeometry relative="1" as="geometry">
            <mxPoint x="215" y="204" as="sourcePoint" />
            <mxPoint x="530" y="1" as="targetPoint" />
          </mxGeometry>
        </mxCell>
        <mxCell id="cZKhLwut3EF_2uJ0cCFD-136" value="" style="endArrow=none;dashed=1;html=1;dashPattern=1 3;strokeWidth=2;rounded=0;labelBackgroundColor=default;strokeColor=#d6b656;align=center;verticalAlign=middle;fontFamily=Helvetica;fontSize=11;fontColor=default;shape=connector;fillColor=#fff2cc;" edge="1" parent="1" source="cZKhLwut3EF_2uJ0cCFD-87">
          <mxGeometry width="50" height="50" relative="1" as="geometry">
            <mxPoint x="210" y="800" as="sourcePoint" />
            <mxPoint x="205" y="-300" as="targetPoint" />
          </mxGeometry>
        </mxCell>
        <mxCell id="cZKhLwut3EF_2uJ0cCFD-137" value="" style="endArrow=none;dashed=1;html=1;dashPattern=1 3;strokeWidth=2;rounded=0;labelBackgroundColor=default;strokeColor=#d6b656;align=center;verticalAlign=middle;fontFamily=Helvetica;fontSize=11;fontColor=default;shape=connector;fillColor=#fff2cc;" edge="1" parent="1" target="cZKhLwut3EF_2uJ0cCFD-87">
          <mxGeometry width="50" height="50" relative="1" as="geometry">
            <mxPoint x="205" y="800" as="sourcePoint" />
            <mxPoint x="220" y="-300" as="targetPoint" />
          </mxGeometry>
        </mxCell>
        <mxCell id="cZKhLwut3EF_2uJ0cCFD-138" value="" style="edgeStyle=orthogonalEdgeStyle;rounded=0;html=1;jettySize=auto;orthogonalLoop=1;strokeWidth=4;endArrow=none;endFill=0;entryX=0;entryY=0.5;entryDx=0;entryDy=0;entryPerimeter=0;" edge="1" parent="1" target="cZKhLwut3EF_2uJ0cCFD-87">
          <mxGeometry x="192.25" y="211" as="geometry">
            <mxPoint x="150" y="211" as="sourcePoint" />
            <mxPoint x="370" y="211" as="targetPoint" />
          </mxGeometry>
        </mxCell>
        <mxCell id="cZKhLwut3EF_2uJ0cCFD-87" value="" style="verticalLabelPosition=bottom;verticalAlign=top;html=1;strokeWidth=4;shape=mxgraph.flowchart.on-page_reference;plain-blue;gradientColor=none;fillColor=#B5E3Fe;strokeColor=#000000;" vertex="1" parent="1">
          <mxGeometry x="190" y="196" width="30" height="30" as="geometry" />
        </mxCell>
        <mxCell id="cZKhLwut3EF_2uJ0cCFD-140" style="edgeStyle=orthogonalEdgeStyle;curved=1;rounded=0;html=1;endArrow=none;endFill=0;jettySize=auto;orthogonalLoop=1;strokeWidth=4;fontSize=15;entryX=0.5;entryY=1;entryDx=0;entryDy=0;entryPerimeter=0;exitX=0.5;exitY=0;exitDx=0;exitDy=0;exitPerimeter=0;" edge="1" parent="1" source="cZKhLwut3EF_2uJ0cCFD-24" target="cZKhLwut3EF_2uJ0cCFD-123">
          <mxGeometry relative="1" as="geometry">
            <mxPoint x="486" y="91" as="sourcePoint" />
            <mxPoint x="545" y="16" as="targetPoint" />
          </mxGeometry>
        </mxCell>
        <mxCell id="cZKhLwut3EF_2uJ0cCFD-141" style="edgeStyle=orthogonalEdgeStyle;curved=1;rounded=0;html=1;endArrow=none;endFill=0;jettySize=auto;orthogonalLoop=1;strokeWidth=4;fontSize=15;entryX=0.5;entryY=1;entryDx=0;entryDy=0;entryPerimeter=0;exitX=0.5;exitY=0;exitDx=0;exitDy=0;exitPerimeter=0;" edge="1" parent="1" source="cZKhLwut3EF_2uJ0cCFD-19" target="cZKhLwut3EF_2uJ0cCFD-120">
          <mxGeometry relative="1" as="geometry">
            <mxPoint x="596" y="91" as="sourcePoint" />
            <mxPoint x="645" y="16" as="targetPoint" />
          </mxGeometry>
        </mxCell>
        <mxCell id="cZKhLwut3EF_2uJ0cCFD-142" value="RELEASE BRANCHING" style="edgeLabel;html=1;align=center;verticalAlign=middle;resizable=0;points=[];fontSize=11;fontFamily=Helvetica;fontColor=default;" vertex="1" connectable="0" parent="1">
          <mxGeometry x="871" y="-269.99739130434773" as="geometry" />
        </mxCell>
        <mxCell id="cZKhLwut3EF_2uJ0cCFD-144" value="Jaguar OTA" style="text;html=1;strokeColor=none;fillColor=none;align=center;verticalAlign=middle;whiteSpace=wrap;overflow=hidden;fontSize=14;fontStyle=1;fontFamily=Courier New;" vertex="1" parent="1">
          <mxGeometry x="461" y="-239.77999999999997" width="50" height="42" as="geometry" />
        </mxCell>
        <mxCell id="cZKhLwut3EF_2uJ0cCFD-145" value="" style="verticalLabelPosition=bottom;verticalAlign=top;html=1;strokeWidth=4;shape=mxgraph.flowchart.on-page_reference;plain-blue;gradientColor=none;fillColor=#B5E3Fe;strokeColor=#000000;" vertex="1" parent="1">
          <mxGeometry x="690" y="-207.77999999999997" width="30" height="30" as="geometry" />
        </mxCell>
        <mxCell id="cZKhLwut3EF_2uJ0cCFD-146" value="" style="verticalLabelPosition=bottom;verticalAlign=top;html=1;strokeWidth=4;shape=mxgraph.flowchart.on-page_reference;strokeColor=#d79b00;fillColor=#ffe6cc;" vertex="1" parent="1">
          <mxGeometry x="981" y="-207.77999999999997" width="30" height="30" as="geometry" />
        </mxCell>
        <mxCell id="cZKhLwut3EF_2uJ0cCFD-147" style="edgeStyle=orthogonalEdgeStyle;rounded=0;orthogonalLoop=1;jettySize=auto;html=1;entryX=0;entryY=0.5;entryDx=0;entryDy=0;entryPerimeter=0;endArrow=none;endFill=0;strokeWidth=4;fillColor=#fff2cc;strokeColor=#d6b656;" edge="1" parent="1" source="cZKhLwut3EF_2uJ0cCFD-143" target="cZKhLwut3EF_2uJ0cCFD-146">
          <mxGeometry relative="1" as="geometry" />
        </mxCell>
        <mxCell id="cZKhLwut3EF_2uJ0cCFD-148" value="" style="edgeStyle=orthogonalEdgeStyle;rounded=0;html=1;jettySize=auto;orthogonalLoop=1;strokeWidth=4;endArrow=none;endFill=0;entryX=0;entryY=0.5;entryDx=0;entryDy=0;entryPerimeter=0;fillColor=#fff2cc;strokeColor=#d6b656;" edge="1" parent="1" source="cZKhLwut3EF_2uJ0cCFD-145" target="cZKhLwut3EF_2uJ0cCFD-143">
          <mxGeometry x="192.25" y="211" as="geometry">
            <mxPoint x="551" y="-192.77999999999997" as="sourcePoint" />
            <mxPoint x="621" y="-192.77999999999997" as="targetPoint" />
          </mxGeometry>
        </mxCell>
        <mxCell id="cZKhLwut3EF_2uJ0cCFD-149" style="edgeStyle=orthogonalEdgeStyle;curved=1;rounded=0;html=1;endArrow=none;endFill=0;jettySize=auto;orthogonalLoop=1;strokeWidth=4;fontSize=15;entryX=0;entryY=0.5;entryDx=0;entryDy=0;entryPerimeter=0;exitX=0.5;exitY=0;exitDx=0;exitDy=0;exitPerimeter=0;fillColor=#fff2cc;strokeColor=#d6b656;" edge="1" parent="1" target="cZKhLwut3EF_2uJ0cCFD-145" source="cZKhLwut3EF_2uJ0cCFD-87">
          <mxGeometry relative="1" as="geometry">
            <mxPoint x="190" y="26.22" as="sourcePoint" />
            <mxPoint x="515" y="-168.78" as="targetPoint" />
          </mxGeometry>
        </mxCell>
        <mxCell id="cZKhLwut3EF_2uJ0cCFD-152" style="edgeStyle=orthogonalEdgeStyle;shape=connector;rounded=0;orthogonalLoop=1;jettySize=auto;html=1;entryX=0.5;entryY=1;entryDx=0;entryDy=0;entryPerimeter=0;labelBackgroundColor=default;strokeColor=default;strokeWidth=2;align=center;verticalAlign=middle;fontFamily=Helvetica;fontSize=11;fontColor=default;endArrow=none;endFill=0;dashed=1;" edge="1" parent="1" source="cZKhLwut3EF_2uJ0cCFD-75" target="cZKhLwut3EF_2uJ0cCFD-124">
          <mxGeometry relative="1" as="geometry" />
        </mxCell>
        <mxCell id="cZKhLwut3EF_2uJ0cCFD-153" style="edgeStyle=orthogonalEdgeStyle;shape=connector;rounded=0;orthogonalLoop=1;jettySize=auto;html=1;entryX=0.5;entryY=1;entryDx=0;entryDy=0;entryPerimeter=0;labelBackgroundColor=default;strokeColor=default;strokeWidth=2;align=center;verticalAlign=middle;fontFamily=Helvetica;fontSize=11;fontColor=default;endArrow=none;endFill=0;dashed=1;" edge="1" parent="1" source="cZKhLwut3EF_2uJ0cCFD-124" target="cZKhLwut3EF_2uJ0cCFD-146">
          <mxGeometry relative="1" as="geometry" />
        </mxCell>
        <mxCell id="cZKhLwut3EF_2uJ0cCFD-154" value="" style="verticalLabelPosition=bottom;verticalAlign=top;html=1;strokeWidth=1;shape=mxgraph.flowchart.on-page_reference;strokeColor=#82b366;fillColor=#d5e8d4;" vertex="1" parent="1">
          <mxGeometry x="461" y="81" width="30" height="30" as="geometry" />
        </mxCell>
        <mxCell id="cZKhLwut3EF_2uJ0cCFD-159" value="" style="edgeStyle=orthogonalEdgeStyle;rounded=0;html=1;jettySize=auto;orthogonalLoop=1;strokeWidth=4;endArrow=none;endFill=0;entryX=0;entryY=0.5;entryDx=0;entryDy=0;entryPerimeter=0;fillColor=#dae8fc;strokeColor=#6c8ebf;" edge="1" parent="1" source="cZKhLwut3EF_2uJ0cCFD-123" target="cZKhLwut3EF_2uJ0cCFD-158">
          <mxGeometry x="192.25" y="211" as="geometry">
            <mxPoint x="580" y="-93" as="sourcePoint" />
            <mxPoint x="830" y="-93" as="targetPoint" />
          </mxGeometry>
        </mxCell>
        <mxCell id="cZKhLwut3EF_2uJ0cCFD-158" value="" style="verticalLabelPosition=bottom;verticalAlign=top;html=1;strokeWidth=4;shape=mxgraph.flowchart.on-page_reference;plain-blue;gradientColor=none;fillColor=#B5E3Fe;strokeColor=#000000;" vertex="1" parent="1">
          <mxGeometry x="660" y="-108" width="30" height="30" as="geometry" />
        </mxCell>
        <mxCell id="cZKhLwut3EF_2uJ0cCFD-160" style="edgeStyle=orthogonalEdgeStyle;curved=1;rounded=0;html=1;endArrow=none;endFill=0;jettySize=auto;orthogonalLoop=1;strokeWidth=4;fontSize=15;entryX=0.5;entryY=1;entryDx=0;entryDy=0;entryPerimeter=0;exitX=0.5;exitY=0;exitDx=0;exitDy=0;exitPerimeter=0;" edge="1" parent="1" source="cZKhLwut3EF_2uJ0cCFD-88" target="cZKhLwut3EF_2uJ0cCFD-158">
          <mxGeometry relative="1" as="geometry">
            <mxPoint x="545" y="-14" as="sourcePoint" />
            <mxPoint x="575" y="-68" as="targetPoint" />
          </mxGeometry>
        </mxCell>
        <mxCell id="cZKhLwut3EF_2uJ0cCFD-161" style="edgeStyle=orthogonalEdgeStyle;curved=1;rounded=0;html=1;endArrow=none;endFill=0;jettySize=auto;orthogonalLoop=1;strokeWidth=4;fontSize=15;entryX=0.5;entryY=1;entryDx=0;entryDy=0;entryPerimeter=0;exitX=0.5;exitY=0;exitDx=0;exitDy=0;exitPerimeter=0;" edge="1" parent="1" source="cZKhLwut3EF_2uJ0cCFD-158" target="cZKhLwut3EF_2uJ0cCFD-145">
          <mxGeometry relative="1" as="geometry">
            <mxPoint x="645" y="-14" as="sourcePoint" />
            <mxPoint x="685" y="-68" as="targetPoint" />
          </mxGeometry>
        </mxCell>
        <mxCell id="cZKhLwut3EF_2uJ0cCFD-162" value="" style="endArrow=none;dashed=1;html=1;rounded=0;labelBackgroundColor=default;strokeColor=#d6b656;strokeWidth=1;align=center;verticalAlign=middle;fontFamily=Helvetica;fontSize=11;fontColor=default;shape=connector;fillColor=#fff2cc;" edge="1" parent="1" source="cZKhLwut3EF_2uJ0cCFD-82" target="cZKhLwut3EF_2uJ0cCFD-143">
          <mxGeometry width="50" height="50" relative="1" as="geometry">
            <mxPoint x="875" y="194" as="sourcePoint" />
            <mxPoint x="875" y="-300" as="targetPoint" />
          </mxGeometry>
        </mxCell>
        <mxCell id="cZKhLwut3EF_2uJ0cCFD-143" value="" style="verticalLabelPosition=bottom;verticalAlign=top;html=1;strokeWidth=4;shape=mxgraph.flowchart.on-page_reference;plain-blue;gradientColor=none;fillColor=#B5E3Fe;strokeColor=#000000;" vertex="1" parent="1">
          <mxGeometry x="860" y="-207.77999999999997" width="30" height="30" as="geometry" />
        </mxCell>
        <mxCell id="cZKhLwut3EF_2uJ0cCFD-163" style="edgeStyle=orthogonalEdgeStyle;curved=1;rounded=0;html=1;endArrow=none;endFill=0;jettySize=auto;orthogonalLoop=1;strokeWidth=4;fontSize=15;entryX=0.5;entryY=1;entryDx=0;entryDy=0;entryPerimeter=0;exitX=0.5;exitY=0;exitDx=0;exitDy=0;exitPerimeter=0;" edge="1" parent="1" source="cZKhLwut3EF_2uJ0cCFD-120" target="cZKhLwut3EF_2uJ0cCFD-143">
          <mxGeometry relative="1" as="geometry">
            <mxPoint x="685" y="-98" as="sourcePoint" />
            <mxPoint x="715" y="-168" as="targetPoint" />
          </mxGeometry>
        </mxCell>
      </root>
    </mxGraphModel>
  </diagram>
</mxfile>
